<svg id="svg" version="1.1" xmlns="http://www.w3.org/2000/svg" xmlns:xlink="http://www.w3.org/1999/xlink" width="400" height="322.0389805097451" viewBox="0, 0, 400,322.0389805097451"><g id="svgg"><path id="path0" d="M0.000 161.031 L 0.000 322.061 200.000 322.061 L 400.000 322.061 400.000 161.031 L 400.000 0.000 200.000 0.000 L 0.000 0.000 0.000 161.031 M149.597 144.767 C 149.597 247.342,149.638 244.089,148.295 250.403 C 145.797 262.146,139.966 269.217,129.630 273.036 C 121.998 275.856,108.896 276.125,102.657 273.590 C 102.137 273.379,102.093 272.564,102.093 262.960 L 102.093 252.559 103.623 253.051 C 107.935 254.437,116.667 254.727,119.968 253.593 C 124.133 252.163,126.796 248.862,128.011 243.627 C 128.446 241.750,128.502 230.333,128.502 144.290 C 128.502 66.820,128.584 47.041,128.905 46.910 C 129.126 46.819,133.873 46.771,139.452 46.802 L 149.597 46.860 149.597 144.767 M247.255 47.018 C 267.471 48.841,276.847 57.488,279.907 77.134 C 281.060 84.533,280.941 136.367,279.755 143.156 C 278.091 152.688,272.762 161.029,265.841 164.935 C 263.744 166.118,263.699 166.180,264.057 167.354 C 264.211 167.862,264.507 169.291,264.713 170.531 C 264.920 171.771,265.215 173.366,265.369 174.074 C 265.623 175.246,265.814 176.206,266.685 180.676 C 267.104 182.830,268.544 190.538,268.940 192.754 C 269.131 193.816,269.410 195.266,269.561 195.974 C 269.712 196.683,269.980 198.060,270.156 199.034 C 270.616 201.583,271.054 203.973,272.165 209.984 C 273.766 218.644,274.831 224.858,276.140 233.172 C 276.601 236.095,277.121 239.320,277.297 240.338 C 277.473 241.357,277.762 243.060,277.939 244.122 C 278.116 245.185,278.406 246.924,278.583 247.987 C 278.760 249.050,279.044 250.753,279.215 251.771 C 279.586 253.993,280.015 256.699,280.682 261.031 C 281.455 266.053,281.837 268.325,282.155 269.788 C 282.316 270.531,282.448 271.727,282.448 272.445 L 282.448 273.752 271.176 273.752 C 264.189 273.752,259.903 273.634,259.903 273.443 C 259.903 273.120,257.584 256.508,257.012 252.738 C 256.831 251.542,256.535 249.550,256.353 248.311 C 256.172 247.071,255.882 245.151,255.708 244.043 C 255.396 242.052,253.674 230.138,253.114 226.087 C 252.954 224.936,252.671 223.052,252.485 221.900 C 252.298 220.749,252.013 218.937,251.852 217.874 C 251.690 216.812,251.418 215.072,251.247 214.010 C 251.077 212.947,250.419 208.816,249.785 204.831 C 248.649 197.677,248.312 195.658,247.649 192.029 C 247.463 191.010,247.182 189.380,247.025 188.406 C 246.716 186.483,245.441 179.219,244.512 174.074 C 243.980 171.132,243.868 170.855,243.221 170.876 C 242.831 170.889,239.179 170.925,235.105 170.957 L 227.697 171.014 227.697 222.388 L 227.697 273.761 217.311 273.676 L 206.924 273.591 206.842 160.548 C 206.797 98.374,206.828 47.323,206.912 47.101 C 207.099 46.610,241.932 46.538,247.255 47.018 M227.912 68.415 C 227.794 68.722,227.697 87.585,227.697 110.332 L 227.697 151.691 236.721 151.691 C 253.010 151.691,257.357 149.011,258.925 138.003 C 259.478 134.124,259.355 85.468,258.784 81.965 C 257.369 73.284,254.911 70.375,247.504 68.614 C 244.549 67.911,228.169 67.745,227.912 68.415 " stroke="none" fill="#1a1a1a" fill-rule="evenodd"></path><path id="path1" d="M128.905 46.910 C 128.584 47.041,128.502 66.820,128.502 144.290 C 128.502 230.333,128.446 241.750,128.011 243.627 C 126.796 248.862,124.133 252.163,119.968 253.593 C 116.667 254.727,107.935 254.437,103.623 253.051 L 102.093 252.559 102.093 262.960 C 102.093 272.564,102.137 273.379,102.657 273.590 C 108.896 276.125,121.998 275.856,129.630 273.036 C 139.966 269.217,145.797 262.146,148.295 250.403 C 149.638 244.089,149.597 247.342,149.597 144.767 L 149.597 46.860 139.452 46.802 C 133.873 46.771,129.126 46.819,128.905 46.910 M206.912 47.101 C 206.828 47.323,206.797 98.374,206.842 160.548 L 206.924 273.591 217.311 273.676 L 227.697 273.761 227.697 222.388 L 227.697 171.014 235.105 170.957 C 239.179 170.925,242.831 170.889,243.221 170.876 C 243.868 170.855,243.980 171.132,244.512 174.074 C 245.441 179.219,246.716 186.483,247.025 188.406 C 247.182 189.380,247.463 191.010,247.649 192.029 C 248.312 195.658,248.649 197.677,249.785 204.831 C 250.419 208.816,251.077 212.947,251.247 214.010 C 251.418 215.072,251.690 216.812,251.852 217.874 C 252.013 218.937,252.298 220.749,252.485 221.900 C 252.671 223.052,252.954 224.936,253.114 226.087 C 253.674 230.138,255.396 242.052,255.708 244.043 C 255.882 245.151,256.172 247.071,256.353 248.311 C 256.535 249.550,256.831 251.542,257.012 252.738 C 257.584 256.508,259.903 273.120,259.903 273.443 C 259.903 273.634,264.189 273.752,271.176 273.752 L 282.448 273.752 282.448 272.445 C 282.448 271.727,282.316 270.531,282.155 269.788 C 281.837 268.325,281.455 266.053,280.682 261.031 C 280.015 256.699,279.586 253.993,279.215 251.771 C 279.044 250.753,278.760 249.050,278.583 247.987 C 278.406 246.924,278.116 245.185,277.939 244.122 C 277.762 243.060,277.473 241.357,277.297 240.338 C 277.121 239.320,276.601 236.095,276.140 233.172 C 274.831 224.858,273.766 218.644,272.165 209.984 C 271.054 203.973,270.616 201.583,270.156 199.034 C 269.980 198.060,269.712 196.683,269.561 195.974 C 269.410 195.266,269.131 193.816,268.940 192.754 C 268.544 190.538,267.104 182.830,266.685 180.676 C 265.814 176.206,265.623 175.246,265.369 174.074 C 265.215 173.366,264.920 171.771,264.713 170.531 C 264.507 169.291,264.211 167.862,264.057 167.354 C 263.699 166.180,263.744 166.118,265.841 164.935 C 272.762 161.029,278.091 152.688,279.755 143.156 C 280.941 136.367,281.060 84.533,279.907 77.134 C 276.847 57.488,267.471 48.841,247.255 47.018 C 241.932 46.538,207.099 46.610,206.912 47.101 M247.504 68.614 C 254.911 70.375,257.369 73.284,258.784 81.965 C 259.355 85.468,259.478 134.124,258.925 138.003 C 257.357 149.011,253.010 151.691,236.721 151.691 L 227.697 151.691 227.697 110.332 C 227.697 87.585,227.794 68.722,227.912 68.415 C 228.169 67.745,244.549 67.911,247.504 68.614 " stroke="none" fill="#fbfbfb" fill-rule="evenodd"></path></g></svg>