<svg id="svg" version="1.1" xmlns="http://www.w3.org/2000/svg" xmlns:xlink="http://www.w3.org/1999/xlink" width="400" height="310.44776119402985" viewBox="0, 0, 400,310.44776119402985"><g id="svgg"><path id="path0" d="M136.334 135.792 C 136.333 239.871,136.571 232.088,133.251 236.646 C 129.651 241.586,121.082 242.975,111.879 240.109 L 110.870 239.795 110.870 249.508 L 110.870 259.221 113.148 259.883 C 114.740 260.346,116.731 260.602,119.748 260.735 C 139.037 261.580,150.023 254.666,154.075 239.130 C 155.663 233.044,155.577 238.816,155.584 137.811 L 155.590 44.720 145.963 44.720 L 136.335 44.720 136.334 135.792 M210.248 151.990 L 210.248 259.317 219.876 259.317 L 229.503 259.317 229.503 210.559 L 229.503 161.801 237.382 161.801 L 245.261 161.801 245.594 163.121 C 245.777 163.847,245.996 164.930,246.081 165.528 C 246.165 166.126,246.463 167.873,246.742 169.410 C 247.485 173.506,247.828 175.432,248.123 177.174 C 248.268 178.028,248.759 180.823,249.215 183.385 C 249.670 185.947,250.165 188.882,250.314 189.907 C 250.463 190.932,250.813 193.168,251.091 194.876 C 251.714 198.700,252.150 201.490,252.476 203.727 C 252.613 204.666,252.955 206.832,253.237 208.540 C 253.519 210.248,253.888 212.624,254.059 213.820 C 254.229 215.016,254.497 216.832,254.654 217.857 C 254.812 218.882,255.166 221.188,255.442 222.981 C 255.718 224.775,256.074 227.116,256.233 228.183 C 256.392 229.251,256.655 230.998,256.819 232.065 C 257.233 234.773,258.352 242.805,258.993 247.671 C 259.128 248.696,259.393 250.722,259.583 252.174 C 259.772 253.626,260.089 255.827,260.287 257.065 L 260.647 259.317 271.201 259.317 L 281.756 259.317 281.561 257.842 C 281.359 256.304,281.045 254.348,280.453 250.932 C 280.261 249.821,279.883 247.516,279.614 245.807 C 279.344 244.099,279.011 242.073,278.874 241.304 C 278.460 238.987,278.016 236.348,277.488 233.075 C 277.213 231.366,276.844 229.130,276.668 228.106 C 275.814 223.135,274.922 217.826,274.530 215.373 C 274.103 212.709,273.671 210.198,273.141 207.298 C 272.860 205.761,272.499 203.734,272.340 202.795 C 272.036 201.001,271.810 199.767,270.950 195.186 C 270.389 192.201,270.118 190.696,269.609 187.733 C 269.433 186.708,269.057 184.682,268.773 183.230 C 268.490 181.778,268.143 179.961,268.002 179.193 C 267.477 176.327,266.028 168.906,265.243 165.062 C 265.068 164.208,264.735 162.381,264.502 161.001 C 264.269 159.622,263.986 158.344,263.873 158.161 C 263.756 157.971,264.691 157.135,266.060 156.206 C 274.605 150.408,278.341 143.371,279.492 130.901 C 279.875 126.757,279.864 80.852,279.479 76.708 C 278.890 70.360,277.376 63.608,276.300 62.532 C 276.183 62.415,276.087 62.086,276.087 61.801 C 276.087 61.165,273.302 56.530,272.218 55.361 C 271.784 54.892,271.429 54.405,271.429 54.277 C 271.429 52.542,261.075 47.195,255.435 46.016 C 250.718 45.031,248.993 44.949,229.891 44.808 L 210.248 44.662 210.248 151.990 M249.179 65.076 C 255.385 66.638,257.535 69.029,259.360 76.398 C 259.999 78.982,259.979 130.388,259.337 133.075 C 257.157 142.203,252.829 144.355,236.568 144.393 L 229.503 144.410 229.503 104.503 L 229.503 64.596 238.387 64.596 C 245.371 64.596,247.679 64.699,249.179 65.076 " stroke="none" fill="#040404" fill-rule="evenodd"></path><path id="path1" d="M0.000 155.280 L 0.000 310.559 200.000 310.559 L 400.000 310.559 400.000 155.280 L 400.000 0.000 200.000 0.000 L 0.000 0.000 0.000 155.280 M156.350 134.938 C 156.338 201.363,156.237 226.545,155.968 229.969 C 155.586 234.831,154.979 238.918,154.581 239.313 C 154.453 239.440,154.348 239.862,154.348 240.251 C 154.348 240.639,154.208 241.044,154.037 241.149 C 153.866 241.255,153.727 241.702,153.727 242.142 C 153.727 245.463,147.394 254.035,143.168 256.436 C 142.399 256.873,141.281 257.531,140.683 257.899 C 140.085 258.267,138.758 258.835,137.733 259.161 C 136.708 259.488,135.737 259.866,135.575 260.002 C 135.412 260.137,134.816 260.248,134.250 260.248 C 133.684 260.248,132.979 260.378,132.682 260.536 C 130.397 261.753,115.559 261.754,113.281 260.537 C 112.984 260.378,112.495 260.244,112.194 260.239 C 110.562 260.209,110.559 260.188,110.559 249.267 C 110.559 241.690,110.651 239.130,110.925 239.130 C 111.306 239.130,113.053 239.653,114.130 240.089 C 116.806 241.172,125.926 241.136,128.024 240.035 C 128.320 239.879,128.714 239.752,128.898 239.752 C 129.222 239.752,131.193 238.387,131.832 237.720 C 132.733 236.781,134.324 233.514,135.002 231.211 C 135.520 229.451,135.556 224.216,135.640 136.875 L 135.730 44.402 146.048 44.483 L 156.366 44.565 156.350 134.938 M252.753 44.904 C 254.569 45.176,256.299 45.525,256.595 45.681 C 256.892 45.836,257.408 45.963,257.741 45.963 C 258.075 45.963,258.423 46.084,258.515 46.232 C 258.607 46.381,259.209 46.587,259.853 46.690 C 260.911 46.860,266.703 49.482,267.081 49.961 C 267.166 50.070,267.795 50.562,268.478 51.054 C 270.067 52.199,274.224 56.544,274.224 57.060 C 274.224 57.277,274.347 57.453,274.498 57.453 C 274.649 57.453,274.849 57.698,274.944 57.997 C 275.038 58.296,275.386 59.030,275.717 59.627 C 276.269 60.625,276.476 61.082,277.301 63.121 C 277.855 64.489,278.571 67.052,278.571 67.664 C 278.571 68.006,278.693 68.361,278.841 68.453 C 278.989 68.544,279.209 69.286,279.329 70.102 C 279.449 70.917,279.681 72.422,279.843 73.447 C 280.758 79.212,280.462 132.020,279.492 136.180 C 278.799 139.152,278.509 140.220,278.270 140.693 C 278.138 140.955,277.927 141.633,277.803 142.200 C 276.872 146.440,269.001 156.522,266.623 156.522 C 266.519 156.522,266.265 156.666,266.058 156.843 C 265.852 157.020,265.407 157.355,265.070 157.589 C 264.468 158.005,264.466 158.062,264.993 160.606 C 265.289 162.032,265.530 163.555,265.529 163.991 C 265.529 164.426,265.653 164.915,265.807 165.078 C 265.960 165.240,266.157 165.932,266.245 166.615 C 266.332 167.298,266.627 168.975,266.900 170.342 C 267.172 171.708,267.476 173.455,267.573 174.224 C 267.671 174.992,267.871 175.901,268.018 176.242 C 268.164 176.584,268.354 177.352,268.438 177.950 C 268.523 178.548,268.819 180.225,269.096 181.677 C 269.373 183.129,269.672 184.946,269.761 185.714 C 269.849 186.483,270.043 187.391,270.191 187.733 C 270.340 188.075,270.531 188.913,270.615 189.596 C 270.700 190.280,271.000 192.096,271.282 193.634 C 271.565 195.171,271.917 197.127,272.066 197.981 C 272.214 198.835,272.473 200.233,272.641 201.087 C 273.307 204.475,273.952 208.308,274.105 209.783 C 274.194 210.637,274.389 211.615,274.538 211.957 C 274.687 212.298,274.873 213.137,274.950 213.820 C 275.027 214.503,275.322 216.460,275.605 218.168 C 275.889 219.876,276.193 221.972,276.281 222.826 C 276.369 223.680,276.563 224.658,276.712 225.000 C 276.861 225.342,277.048 226.180,277.128 226.863 C 277.207 227.547,277.508 229.573,277.797 231.366 C 278.087 233.160,278.386 235.256,278.463 236.025 C 278.541 236.793,278.729 237.702,278.882 238.043 C 279.035 238.385,279.230 239.293,279.315 240.062 C 279.400 240.831,279.690 242.787,279.960 244.410 C 280.230 246.033,280.534 248.166,280.636 249.151 C 280.737 250.136,280.944 251.017,281.094 251.110 C 281.244 251.203,281.366 251.909,281.366 252.678 C 281.366 253.448,281.488 254.313,281.637 254.601 C 281.785 254.889,282.004 256.137,282.121 257.376 L 282.336 259.627 271.164 259.627 L 259.992 259.627 259.776 258.343 C 259.656 257.637,259.430 255.925,259.272 254.539 C 259.014 252.270,258.792 250.601,258.233 246.739 C 258.008 245.186,257.212 239.135,256.986 237.267 C 256.893 236.498,256.688 235.031,256.530 234.006 C 256.372 232.981,256.098 231.174,255.921 229.989 C 255.745 228.804,255.458 227.067,255.285 226.128 C 255.111 225.188,254.969 223.825,254.969 223.098 C 254.969 222.371,254.829 221.689,254.658 221.584 C 254.488 221.478,254.348 220.746,254.348 219.957 C 254.348 219.168,254.218 218.093,254.059 217.569 C 253.670 216.285,252.788 210.066,252.792 208.636 C 252.794 208.006,252.655 207.404,252.484 207.298 C 252.314 207.193,252.174 206.530,252.174 205.827 C 252.174 205.123,252.044 204.118,251.885 203.593 C 251.517 202.378,250.614 196.122,250.618 194.816 C 250.620 194.271,250.481 193.739,250.311 193.634 C 250.140 193.528,250.000 192.893,250.000 192.222 C 250.000 191.551,249.868 190.407,249.706 189.678 C 249.173 187.278,248.447 182.727,248.447 181.790 C 248.447 181.284,248.321 180.737,248.167 180.575 C 248.013 180.412,247.815 179.651,247.727 178.882 C 247.639 178.113,247.340 176.227,247.063 174.689 C 246.786 173.152,246.484 171.266,246.393 170.497 C 246.302 169.728,246.106 168.820,245.958 168.478 C 245.809 168.137,245.615 167.298,245.526 166.615 C 245.163 163.829,244.863 162.403,244.643 162.412 C 244.515 162.418,241.266 162.422,237.423 162.422 L 230.437 162.422 230.358 210.947 L 230.280 259.472 220.109 259.554 L 209.938 259.636 209.938 152.023 L 209.938 44.410 229.694 44.410 C 246.169 44.410,249.998 44.492,252.753 44.904 M230.435 104.358 L 230.435 143.808 238.742 143.691 C 246.691 143.578,248.462 143.446,249.845 142.864 C 250.186 142.720,251.145 142.345,251.975 142.031 C 253.500 141.454,256.522 138.948,256.522 138.261 C 256.522 138.056,256.627 137.888,256.755 137.887 C 256.883 137.886,257.245 137.223,257.559 136.412 C 257.873 135.601,258.248 134.658,258.392 134.317 C 258.536 133.975,258.757 133.207,258.884 132.609 C 259.255 130.859,259.376 78.506,259.010 78.140 C 258.837 77.967,258.696 77.371,258.696 76.816 C 258.696 76.260,258.574 75.485,258.425 75.092 C 258.277 74.700,257.905 73.575,257.598 72.593 C 257.292 71.611,256.925 70.807,256.782 70.807 C 256.639 70.807,256.522 70.633,256.522 70.419 C 256.522 69.999,254.252 67.391,253.887 67.391 C 253.765 67.391,253.155 67.167,252.531 66.894 C 250.578 66.037,250.181 65.891,249.224 65.679 C 247.174 65.226,242.701 64.960,236.724 64.934 L 230.435 64.907 230.435 104.358 " stroke="none" fill="#fbfbfb" fill-rule="evenodd"></path><path id="path2" d="M110.697 249.845 C 110.697 255.140,110.739 257.350,110.791 254.755 C 110.843 252.161,110.843 247.829,110.791 245.128 C 110.740 242.427,110.697 244.550,110.697 249.845 " stroke="none" fill="#7c7c7c" fill-rule="evenodd"></path><path id="path3" d="M156.054 134.783 C 156.054 184.402,156.090 204.701,156.134 179.891 C 156.177 155.082,156.177 114.484,156.134 89.674 C 156.090 64.864,156.054 85.163,156.054 134.783 M233.618 64.828 C 235.454 64.883,238.459 64.883,240.295 64.828 C 242.131 64.773,240.629 64.728,236.957 64.728 C 233.284 64.728,231.782 64.773,233.618 64.828 M259.401 81.677 C 259.401 82.446,259.462 82.760,259.536 82.376 C 259.610 81.991,259.610 81.363,259.536 80.978 C 259.462 80.594,259.401 80.908,259.401 81.677 " stroke="none" fill="#bcbcbc" fill-rule="evenodd"></path><path id="path4" d="M245.730 44.624 C 246.029 44.702,246.518 44.702,246.817 44.624 C 247.116 44.546,246.871 44.482,246.273 44.482 C 245.675 44.482,245.431 44.546,245.730 44.624 M229.957 64.984 C 229.876 65.198,229.845 83.051,229.889 104.658 L 229.969 143.944 237.190 143.953 L 244.410 143.962 237.265 143.870 L 230.120 143.777 230.200 104.187 C 230.244 82.412,230.240 64.596,230.192 64.596 C 230.144 64.596,230.038 64.771,229.957 64.984 M254.348 67.488 C 254.348 67.542,254.802 67.996,255.357 68.498 L 256.366 69.410 255.454 68.401 C 254.604 67.460,254.348 67.249,254.348 67.488 M279.892 77.174 C 279.895 77.857,279.959 78.100,280.033 77.714 C 280.108 77.327,280.105 76.768,280.027 76.472 C 279.949 76.175,279.889 76.491,279.892 77.174 M259.774 105.745 C 259.774 117.531,259.813 122.307,259.860 116.359 C 259.907 110.411,259.907 100.768,259.860 94.931 C 259.813 89.093,259.774 93.960,259.774 105.745 M259.389 129.503 C 259.389 130.101,259.453 130.345,259.531 130.047 C 259.609 129.748,259.609 129.259,259.531 128.960 C 259.453 128.661,259.389 128.905,259.389 129.503 M229.959 162.500 C 229.711 163.159,229.644 259.577,229.891 259.424 C 230.019 259.345,230.124 237.490,230.124 210.858 L 230.124 162.435 236.568 162.344 L 243.012 162.254 236.559 162.183 C 231.627 162.129,230.070 162.203,229.959 162.500 M121.821 241.217 C 122.293 241.288,122.992 241.286,123.374 241.212 C 123.756 241.139,123.370 241.080,122.516 241.083 C 121.661 241.085,121.349 241.145,121.821 241.217 " stroke="none" fill="#a3a4a4" fill-rule="evenodd"></path><path id="path5" d="M136.170 44.794 C 136.088 45.010,136.057 86.273,136.101 136.491 L 136.181 227.795 136.258 136.258 L 136.335 44.720 145.962 44.720 L 155.589 44.720 155.668 136.568 L 155.747 228.416 155.746 136.491 L 155.745 44.565 146.032 44.483 C 138.429 44.419,136.287 44.486,136.170 44.794 M210.082 44.798 C 210.001 45.012,209.970 93.401,210.014 152.329 L 210.093 259.472 219.876 259.472 L 229.658 259.472 229.737 210.798 L 229.816 162.124 236.569 162.034 L 243.323 161.944 236.413 161.873 L 229.503 161.801 229.503 210.559 L 229.503 259.317 219.876 259.317 L 210.248 259.317 210.248 152.021 L 210.248 44.726 226.941 44.643 L 243.634 44.560 226.931 44.485 C 213.800 44.426,210.197 44.493,210.082 44.798 M246.045 44.943 C 246.517 45.015,247.215 45.013,247.597 44.939 C 247.979 44.865,247.593 44.807,246.739 44.809 C 245.885 44.812,245.573 44.872,246.045 44.943 M251.087 45.342 C 252.401 45.676,253.528 45.676,252.484 45.342 C 252.057 45.205,251.359 45.096,250.932 45.099 C 250.234 45.104,250.250 45.129,251.087 45.342 M255.435 45.963 C 255.776 46.110,256.266 46.230,256.522 46.230 C 256.815 46.230,256.758 46.131,256.366 45.963 C 256.025 45.816,255.536 45.696,255.280 45.696 C 254.986 45.696,255.043 45.794,255.435 45.963 M229.503 104.503 L 229.503 144.410 237.034 144.338 L 244.565 144.266 237.187 144.177 L 229.809 144.088 229.889 104.342 C 229.933 82.482,229.864 64.596,229.736 64.596 C 229.608 64.596,229.503 82.554,229.503 104.503 M255.576 68.478 C 256.325 69.332,257.003 70.101,257.083 70.186 C 257.162 70.272,257.080 70.062,256.900 69.720 C 256.720 69.379,256.042 68.610,255.394 68.012 C 254.273 66.979,254.282 67.002,255.576 68.478 M278.950 72.050 C 278.947 72.477,279.056 73.175,279.193 73.602 C 279.527 74.646,279.527 73.519,279.193 72.205 C 278.980 71.368,278.955 71.352,278.950 72.050 M279.592 77.484 C 279.594 78.339,279.655 78.651,279.726 78.179 C 279.797 77.707,279.795 77.008,279.722 76.626 C 279.648 76.244,279.590 76.630,279.592 77.484 M259.389 77.950 C 259.389 78.548,259.453 78.793,259.531 78.494 C 259.609 78.195,259.609 77.706,259.531 77.407 C 259.453 77.108,259.389 77.352,259.389 77.950 M259.706 80.590 C 259.709 81.273,259.773 81.516,259.847 81.130 C 259.921 80.744,259.918 80.185,259.841 79.888 C 259.763 79.591,259.702 79.907,259.706 80.590 M279.961 104.193 C 279.961 117.345,280.000 122.680,280.046 116.048 C 280.093 109.417,280.093 98.656,280.046 92.135 C 280.000 85.615,279.961 91.040,279.961 104.193 M259.712 129.193 C 259.712 129.961,259.772 130.276,259.847 129.891 C 259.921 129.507,259.921 128.878,259.847 128.494 C 259.772 128.109,259.712 128.424,259.712 129.193 M279.588 130.124 C 279.588 130.893,279.648 131.207,279.722 130.823 C 279.796 130.439,279.796 129.810,279.722 129.425 C 279.648 129.041,279.588 129.356,279.588 130.124 M279.037 134.472 C 278.919 135.009,278.888 135.513,278.967 135.592 C 279.046 135.671,279.200 135.289,279.309 134.744 C 279.568 133.449,279.317 133.198,279.037 134.472 M253.882 141.498 C 253.324 141.974,253.209 142.163,253.597 141.970 C 254.166 141.687,255.234 140.665,254.929 140.694 C 254.866 140.701,254.394 141.062,253.882 141.498 M246.199 144.008 C 246.586 144.083,247.145 144.080,247.442 144.002 C 247.738 143.924,247.422 143.864,246.739 143.867 C 246.056 143.871,245.813 143.934,246.199 144.008 M275.761 145.372 C 275.404 146.071,275.165 146.697,275.230 146.762 C 275.295 146.828,275.653 146.255,276.024 145.490 C 276.871 143.748,276.642 143.645,275.761 145.372 M269.701 153.494 L 268.789 154.503 269.798 153.591 C 270.353 153.089,270.807 152.635,270.807 152.582 C 270.807 152.342,270.551 152.553,269.701 153.494 M245.545 163.820 C 245.649 164.503,245.786 165.120,245.849 165.192 C 246.084 165.458,245.908 163.795,245.638 163.199 C 245.442 162.766,245.414 162.954,245.545 163.820 M265.222 165.243 C 265.225 165.656,265.364 166.203,265.532 166.460 C 265.747 166.787,265.779 166.603,265.638 165.839 C 265.392 164.499,265.216 164.246,265.222 165.243 M265.843 168.504 C 265.846 168.832,265.990 169.309,266.163 169.565 C 266.393 169.905,266.422 169.780,266.270 169.099 C 266.015 167.957,265.837 167.710,265.843 168.504 M247.577 175.311 C 247.577 175.652,247.689 176.281,247.826 176.708 C 248.023 177.323,248.075 177.355,248.075 176.863 C 248.075 176.522,247.963 175.893,247.826 175.466 C 247.629 174.851,247.577 174.819,247.577 175.311 M267.396 176.423 C 267.399 176.836,267.538 177.384,267.706 177.640 C 267.921 177.967,267.952 177.783,267.812 177.019 C 267.566 175.679,267.390 175.427,267.396 176.423 M268.065 179.658 C 268.060 180.000,268.176 180.559,268.323 180.901 C 268.663 181.692,268.663 180.876,268.323 179.814 C 268.123 179.190,268.073 179.159,268.065 179.658 M249.751 187.733 C 249.751 188.075,249.863 188.703,250.000 189.130 C 250.197 189.745,250.249 189.778,250.249 189.286 C 250.249 188.944,250.137 188.315,250.000 187.888 C 249.803 187.273,249.751 187.241,249.751 187.733 M269.587 187.914 C 269.599 188.327,269.736 188.944,269.890 189.286 C 270.086 189.719,270.114 189.530,269.983 188.665 C 269.763 187.223,269.555 186.829,269.587 187.914 M270.239 191.460 C 270.234 191.801,270.350 192.360,270.497 192.702 C 270.837 193.493,270.837 192.677,270.497 191.615 C 270.297 190.991,270.246 190.960,270.239 191.460 M251.310 197.516 C 251.307 197.943,251.416 198.641,251.553 199.068 C 251.887 200.112,251.887 198.985,251.553 197.671 C 251.340 196.834,251.315 196.818,251.310 197.516 M252.067 202.329 C 252.171 203.012,252.308 203.630,252.370 203.701 C 252.606 203.968,252.430 202.304,252.159 201.708 C 251.963 201.275,251.935 201.463,252.067 202.329 M252.867 207.143 C 252.867 207.741,252.931 207.985,253.009 207.686 C 253.087 207.387,253.087 206.898,253.009 206.599 C 252.931 206.300,252.867 206.545,252.867 207.143 M274.587 215.994 C 274.582 216.335,274.698 216.894,274.845 217.236 C 275.185 218.027,275.185 217.211,274.845 216.149 C 274.645 215.525,274.594 215.494,274.587 215.994 M255.041 221.429 C 255.041 222.026,255.105 222.271,255.183 221.972 C 255.261 221.673,255.261 221.184,255.183 220.885 C 255.105 220.586,255.041 220.831,255.041 221.429 M276.109 225.181 C 276.121 225.594,276.257 226.211,276.412 226.553 C 276.608 226.986,276.636 226.797,276.504 225.932 C 276.285 224.490,276.077 224.096,276.109 225.181 M257.221 235.870 C 257.225 236.553,257.288 236.796,257.363 236.409 C 257.437 236.023,257.434 235.464,257.356 235.167 C 257.279 234.870,257.218 235.186,257.221 235.870 M278.283 238.225 C 278.295 238.637,278.431 239.255,278.586 239.596 C 278.782 240.029,278.810 239.841,278.678 238.975 C 278.459 237.533,278.251 237.139,278.283 238.225 M257.836 240.683 C 257.836 241.281,257.900 241.526,257.978 241.227 C 258.056 240.928,258.056 240.439,257.978 240.140 C 257.900 239.841,257.836 240.085,257.836 240.683 M112.733 240.368 C 112.989 240.536,113.536 240.676,113.949 240.678 C 114.946 240.685,114.693 240.508,113.354 240.262 C 112.589 240.122,112.405 240.154,112.733 240.368 M117.317 241.213 C 117.704 241.288,118.263 241.285,118.560 241.207 C 118.856 241.129,118.540 241.069,117.857 241.072 C 117.174 241.076,116.931 241.139,117.317 241.213 M125.081 241.213 C 125.468 241.288,126.027 241.285,126.323 241.207 C 126.620 241.129,126.304 241.069,125.621 241.072 C 124.938 241.076,124.695 241.139,125.081 241.213 M121.040 241.529 C 121.595 241.598,122.504 241.598,123.059 241.529 C 123.614 241.460,123.160 241.404,122.050 241.404 C 120.939 241.404,120.485 241.460,121.040 241.529 M258.597 246.273 C 258.699 247.042,258.833 247.729,258.894 247.800 C 259.128 248.070,258.950 246.090,258.688 245.497 C 258.504 245.082,258.474 245.340,258.597 246.273 M279.886 247.516 C 279.886 248.113,279.950 248.358,280.028 248.059 C 280.106 247.760,280.106 247.271,280.028 246.972 C 279.950 246.673,279.886 246.918,279.886 247.516 M149.127 250.081 C 147.827 251.852,147.740 252.032,148.716 250.932 C 149.826 249.678,151.118 247.820,150.872 247.830 C 150.819 247.832,150.034 248.845,149.127 250.081 M259.395 251.708 C 259.399 252.391,259.462 252.634,259.536 252.248 C 259.611 251.862,259.608 251.303,259.530 251.006 C 259.452 250.709,259.392 251.025,259.395 251.708 M280.457 251.268 C 280.469 251.681,280.605 252.298,280.760 252.640 C 280.956 253.073,280.984 252.884,280.852 252.019 C 280.633 250.577,280.425 250.183,280.457 251.268 M143.944 255.177 C 143.261 255.789,142.981 256.146,143.323 255.969 C 143.899 255.671,145.614 254.021,145.318 254.050 C 145.246 254.057,144.627 254.564,143.944 255.177 M281.109 255.124 C 281.104 255.466,281.220 256.025,281.366 256.366 C 281.707 257.158,281.707 256.341,281.366 255.280 C 281.167 254.655,281.116 254.625,281.109 255.124 M260.374 258.696 L 260.404 259.472 271.114 259.472 C 281.595 259.472,281.825 259.459,281.888 258.851 C 281.938 258.368,281.916 258.351,281.792 258.773 C 281.643 259.277,280.863 259.317,271.116 259.317 L 260.600 259.317 260.472 258.618 C 260.360 258.010,260.348 258.020,260.374 258.696 M134.783 259.472 C 134.185 259.702,133.905 259.895,134.161 259.900 C 134.418 259.906,135.047 259.718,135.559 259.483 C 136.758 258.934,136.201 258.926,134.783 259.472 M130.901 260.263 C 130.468 260.459,130.656 260.487,131.522 260.355 C 132.205 260.251,132.822 260.115,132.893 260.052 C 133.160 259.817,131.497 259.993,130.901 260.263 M116.693 260.778 C 117.077 260.852,117.706 260.852,118.090 260.778 C 118.474 260.704,118.160 260.644,117.391 260.644 C 116.623 260.644,116.308 260.704,116.693 260.778 M126.790 260.782 C 127.262 260.853,127.961 260.851,128.343 260.778 C 128.725 260.704,128.339 260.645,127.484 260.648 C 126.630 260.650,126.318 260.710,126.790 260.782 M120.586 261.099 C 121.574 261.161,123.112 261.161,124.002 261.098 C 124.893 261.036,124.084 260.985,122.205 260.986 C 120.326 260.986,119.597 261.038,120.586 261.099 " stroke="none" fill="#747474" fill-rule="evenodd"></path><path id="path6" d="M259.706 83.385 C 259.709 84.068,259.773 84.311,259.847 83.925 C 259.921 83.539,259.918 82.980,259.841 82.683 C 259.763 82.386,259.702 82.702,259.706 83.385 M155.668 230.590 C 155.672 231.273,155.735 231.516,155.810 231.130 C 155.884 230.744,155.881 230.185,155.803 229.888 C 155.726 229.591,155.665 229.907,155.668 230.590 " stroke="none" fill="#818484" fill-rule="evenodd"></path><path id="path7" d="M135.867 134.627 C 135.867 184.161,135.903 204.379,135.947 179.556 C 135.991 154.732,135.991 114.204,135.947 89.494 C 135.903 64.783,135.867 85.093,135.867 134.627 " stroke="none" fill="#c8cccc" fill-rule="evenodd"></path><path id="path8" d="M156.211 134.876 L 156.366 225.311 156.445 135.109 C 156.488 85.498,156.418 44.803,156.289 44.674 C 156.161 44.546,156.126 85.137,156.211 134.876 M251.009 44.935 C 251.308 45.013,251.797 45.013,252.096 44.935 C 252.395 44.856,252.151 44.793,251.553 44.793 C 250.955 44.793,250.710 44.856,251.009 44.935 M230.275 104.348 C 230.275 126.126,230.312 135.035,230.357 124.146 C 230.402 113.257,230.402 95.439,230.357 84.550 C 230.312 73.661,230.275 82.570,230.275 104.348 M279.575 72.671 C 279.575 73.269,279.639 73.513,279.717 73.214 C 279.795 72.915,279.795 72.426,279.717 72.127 C 279.639 71.828,279.575 72.073,279.575 72.671 M280.271 104.503 C 280.271 116.801,280.310 121.787,280.357 115.583 C 280.404 109.378,280.404 99.316,280.357 93.222 C 280.310 87.129,280.271 92.205,280.271 104.503 M259.464 105.590 C 259.464 117.290,259.502 122.077,259.550 116.227 C 259.597 110.377,259.597 100.804,259.550 94.953 C 259.502 89.103,259.464 93.890,259.464 105.590 M230.276 210.870 C 230.276 237.601,230.312 248.536,230.357 235.171 C 230.402 221.805,230.402 199.934,230.357 186.568 C 230.312 173.203,230.276 184.138,230.276 210.870 M135.500 226.553 C 135.502 227.578,135.560 227.959,135.629 227.401 C 135.698 226.843,135.696 226.005,135.626 225.538 C 135.555 225.071,135.498 225.528,135.500 226.553 M257.525 241.304 C 257.525 241.902,257.589 242.147,257.667 241.848 C 257.746 241.549,257.746 241.060,257.667 240.761 C 257.589 240.462,257.525 240.707,257.525 241.304 M259.699 257.453 C 259.699 258.051,259.763 258.296,259.841 257.997 C 259.920 257.698,259.920 257.209,259.841 256.910 C 259.763 256.611,259.699 256.856,259.699 257.453 M119.798 261.411 C 121.207 261.469,123.513 261.469,124.922 261.411 C 126.332 261.354,125.179 261.307,122.360 261.307 C 119.542 261.307,118.389 261.354,119.798 261.411 " stroke="none" fill="#d0d4d4" fill-rule="evenodd"></path></g></svg>